<svg xmlns="http://www.w3.org/2000/svg" viewBox="0 0 128 128" role="img" aria-labelledby="logo-title">
  <title id="logo-title">wasei - 五度圏のロゴ</title>
  <style>
    .bg { fill: #f4f1ea; }
    .ring { stroke: #d6cebd; }
    .tick { stroke: #d6cebd; }
    .arc { stroke: #4a51d0; }
    .dot { fill: #4a51d0; }
    @media (prefers-color-scheme: dark) {
      .bg { fill: #15140f; }
      .ring { stroke: #3e382c; }
      .tick { stroke: #3e382c; }
      .arc { stroke: #9aa0ff; }
      .dot { fill: #9aa0ff; }
    }
  </style>
  <rect class="bg" width="128" height="128" rx="28" />
  <g fill="none" stroke-linecap="round">
    <circle class="ring" cx="64" cy="64" r="40" stroke-width="6" />
    <g class="tick" stroke-width="3">
      <line x1="64" y1="17" x2="64" y2="25" />
      <line x1="64" y1="17" x2="64" y2="25" transform="rotate(30 64 64)" />
      <line x1="64" y1="17" x2="64" y2="25" transform="rotate(60 64 64)" />
      <line x1="64" y1="17" x2="64" y2="25" transform="rotate(90 64 64)" />
      <line x1="64" y1="17" x2="64" y2="25" transform="rotate(120 64 64)" />
      <line x1="64" y1="17" x2="64" y2="25" transform="rotate(150 64 64)" />
      <line x1="64" y1="17" x2="64" y2="25" transform="rotate(180 64 64)" />
      <line x1="64" y1="17" x2="64" y2="25" transform="rotate(210 64 64)" />
      <line x1="64" y1="17" x2="64" y2="25" transform="rotate(240 64 64)" />
      <line x1="64" y1="17" x2="64" y2="25" transform="rotate(270 64 64)" />
      <line x1="64" y1="17" x2="64" y2="25" transform="rotate(300 64 64)" />
      <line x1="64" y1="17" x2="64" y2="25" transform="rotate(330 64 64)" />
    </g>
    <path class="arc" d="M35.7 35.7 A40 40 0 0 1 92.3 35.7" stroke-width="7" />
  </g>
  <circle class="dot" cx="64" cy="64" r="9" />
</svg>
